<mxfile host="app.diagrams.net" agent="Mozilla/5.0 (X11; Ubuntu; Linux x86_64; rv:131.0) Gecko/20100101 Firefox/131.0" version="24.8.0">
  <diagram id="R2lEEEUBdFMjLlhIrx00" name="Page-1">
    <mxGraphModel dx="2005" dy="-1242" grid="1" gridSize="10" guides="1" tooltips="1" connect="1" arrows="1" fold="1" page="1" pageScale="1" pageWidth="850" pageHeight="1100" math="0" shadow="0" extFonts="Permanent Marker^https://fonts.googleapis.com/css?family=Permanent+Marker">
      <root>
        <mxCell id="0" />
        <mxCell id="1" parent="0" />
        <mxCell id="JH9okOF0Hea_XWlJzWy8-389" value="" style="ellipse;whiteSpace=wrap;html=1;aspect=fixed;" vertex="1" parent="1">
          <mxGeometry x="965" y="3800" width="80" height="80" as="geometry" />
        </mxCell>
        <mxCell id="JH9okOF0Hea_XWlJzWy8-390" value="Start" style="ellipse;whiteSpace=wrap;html=1;aspect=fixed;" vertex="1" parent="1">
          <mxGeometry x="975" y="3810" width="60" height="60" as="geometry" />
        </mxCell>
        <mxCell id="JH9okOF0Hea_XWlJzWy8-391" value="" style="ellipse;whiteSpace=wrap;html=1;aspect=fixed;" vertex="1" parent="1">
          <mxGeometry x="975" y="3210" width="80" height="80" as="geometry" />
        </mxCell>
        <mxCell id="JH9okOF0Hea_XWlJzWy8-392" value="End state" style="ellipse;whiteSpace=wrap;html=1;aspect=fixed;" vertex="1" parent="1">
          <mxGeometry x="985" y="3220" width="60" height="60" as="geometry" />
        </mxCell>
        <mxCell id="JH9okOF0Hea_XWlJzWy8-393" value="state" style="ellipse;whiteSpace=wrap;html=1;aspect=fixed;" vertex="1" parent="1">
          <mxGeometry x="895" y="3220" width="60" height="60" as="geometry" />
        </mxCell>
        <mxCell id="JH9okOF0Hea_XWlJzWy8-394" value="" style="ellipse;whiteSpace=wrap;html=1;aspect=fixed;" vertex="1" parent="1">
          <mxGeometry x="1395" y="3641.69" width="80" height="80" as="geometry" />
        </mxCell>
        <mxCell id="JH9okOF0Hea_XWlJzWy8-395" value="A" style="ellipse;whiteSpace=wrap;html=1;aspect=fixed;" vertex="1" parent="1">
          <mxGeometry x="1405" y="3651.69" width="60" height="60" as="geometry" />
        </mxCell>
        <mxCell id="JH9okOF0Hea_XWlJzWy8-396" value="" style="ellipse;whiteSpace=wrap;html=1;aspect=fixed;" vertex="1" parent="1">
          <mxGeometry x="1395" y="3511.69" width="80" height="80" as="geometry" />
        </mxCell>
        <mxCell id="JH9okOF0Hea_XWlJzWy8-397" value="E" style="ellipse;whiteSpace=wrap;html=1;aspect=fixed;" vertex="1" parent="1">
          <mxGeometry x="1405" y="3521.69" width="60" height="60" as="geometry" />
        </mxCell>
        <mxCell id="JH9okOF0Hea_XWlJzWy8-398" value="" style="endArrow=classic;html=1;rounded=0;entryX=0.504;entryY=1.009;entryDx=0;entryDy=0;entryPerimeter=0;exitX=0.5;exitY=0;exitDx=0;exitDy=0;" edge="1" parent="1" source="JH9okOF0Hea_XWlJzWy8-394" target="JH9okOF0Hea_XWlJzWy8-396">
          <mxGeometry width="50" height="50" relative="1" as="geometry">
            <mxPoint x="1395" y="3671.69" as="sourcePoint" />
            <mxPoint x="1445" y="3621.69" as="targetPoint" />
          </mxGeometry>
        </mxCell>
        <mxCell id="JH9okOF0Hea_XWlJzWy8-399" value="=" style="edgeLabel;html=1;align=center;verticalAlign=middle;resizable=0;points=[];fontSize=15;" vertex="1" connectable="0" parent="JH9okOF0Hea_XWlJzWy8-398">
          <mxGeometry x="-0.1797" relative="1" as="geometry">
            <mxPoint as="offset" />
          </mxGeometry>
        </mxCell>
        <mxCell id="JH9okOF0Hea_XWlJzWy8-400" value="" style="endArrow=classic;html=1;rounded=0;exitX=0.986;exitY=0.381;exitDx=0;exitDy=0;exitPerimeter=0;entryX=0.5;entryY=1;entryDx=0;entryDy=0;" edge="1" parent="1" source="JH9okOF0Hea_XWlJzWy8-389" target="JH9okOF0Hea_XWlJzWy8-394">
          <mxGeometry width="50" height="50" relative="1" as="geometry">
            <mxPoint x="1028.98" y="3830.48" as="sourcePoint" />
            <mxPoint x="1339.94" y="3720" as="targetPoint" />
            <Array as="points">
              <mxPoint x="1435" y="3830" />
            </Array>
          </mxGeometry>
        </mxCell>
        <mxCell id="JH9okOF0Hea_XWlJzWy8-401" value="=" style="edgeLabel;html=1;align=center;verticalAlign=middle;resizable=0;points=[];fontSize=15;" vertex="1" connectable="0" parent="JH9okOF0Hea_XWlJzWy8-400">
          <mxGeometry relative="1" as="geometry">
            <mxPoint x="111" as="offset" />
          </mxGeometry>
        </mxCell>
        <mxCell id="JH9okOF0Hea_XWlJzWy8-402" value="" style="endArrow=classic;html=1;rounded=0;entryX=0.5;entryY=1;entryDx=0;entryDy=0;" edge="1" parent="1" target="JH9okOF0Hea_XWlJzWy8-404">
          <mxGeometry width="50" height="50" relative="1" as="geometry">
            <mxPoint x="1045" y="3840" as="sourcePoint" />
            <mxPoint x="1430.94" y="3720" as="targetPoint" />
            <Array as="points">
              <mxPoint x="1525" y="3840" />
            </Array>
          </mxGeometry>
        </mxCell>
        <mxCell id="JH9okOF0Hea_XWlJzWy8-403" value="&amp;lt;" style="edgeLabel;html=1;align=center;verticalAlign=middle;resizable=0;points=[];fontSize=15;" vertex="1" connectable="0" parent="JH9okOF0Hea_XWlJzWy8-402">
          <mxGeometry relative="1" as="geometry">
            <mxPoint x="155" y="-1" as="offset" />
          </mxGeometry>
        </mxCell>
        <mxCell id="JH9okOF0Hea_XWlJzWy8-404" value="" style="ellipse;whiteSpace=wrap;html=1;aspect=fixed;" vertex="1" parent="1">
          <mxGeometry x="1486" y="3641.69" width="80" height="80" as="geometry" />
        </mxCell>
        <mxCell id="JH9okOF0Hea_XWlJzWy8-405" value="L" style="ellipse;whiteSpace=wrap;html=1;aspect=fixed;" vertex="1" parent="1">
          <mxGeometry x="1496" y="3651.69" width="60" height="60" as="geometry" />
        </mxCell>
        <mxCell id="JH9okOF0Hea_XWlJzWy8-406" value="" style="ellipse;whiteSpace=wrap;html=1;aspect=fixed;" vertex="1" parent="1">
          <mxGeometry x="1486" y="3511.69" width="80" height="80" as="geometry" />
        </mxCell>
        <mxCell id="JH9okOF0Hea_XWlJzWy8-407" value="LE" style="ellipse;whiteSpace=wrap;html=1;aspect=fixed;" vertex="1" parent="1">
          <mxGeometry x="1496" y="3521.69" width="60" height="60" as="geometry" />
        </mxCell>
        <mxCell id="JH9okOF0Hea_XWlJzWy8-408" value="" style="endArrow=classic;html=1;rounded=0;entryX=0.504;entryY=1.009;entryDx=0;entryDy=0;entryPerimeter=0;exitX=0.5;exitY=0;exitDx=0;exitDy=0;" edge="1" parent="1" source="JH9okOF0Hea_XWlJzWy8-404" target="JH9okOF0Hea_XWlJzWy8-406">
          <mxGeometry width="50" height="50" relative="1" as="geometry">
            <mxPoint x="1486" y="3671.69" as="sourcePoint" />
            <mxPoint x="1536" y="3621.69" as="targetPoint" />
          </mxGeometry>
        </mxCell>
        <mxCell id="JH9okOF0Hea_XWlJzWy8-409" value="=" style="edgeLabel;html=1;align=center;verticalAlign=middle;resizable=0;points=[];fontSize=15;" vertex="1" connectable="0" parent="JH9okOF0Hea_XWlJzWy8-408">
          <mxGeometry x="-0.1797" relative="1" as="geometry">
            <mxPoint as="offset" />
          </mxGeometry>
        </mxCell>
        <mxCell id="JH9okOF0Hea_XWlJzWy8-410" value="" style="endArrow=classic;html=1;rounded=0;exitX=0.984;exitY=0.612;exitDx=0;exitDy=0;exitPerimeter=0;entryX=0.5;entryY=1;entryDx=0;entryDy=0;" edge="1" parent="1" source="JH9okOF0Hea_XWlJzWy8-389" target="JH9okOF0Hea_XWlJzWy8-412">
          <mxGeometry width="50" height="50" relative="1" as="geometry">
            <mxPoint x="1137" y="3840" as="sourcePoint" />
            <mxPoint x="1522.94" y="3720" as="targetPoint" />
            <Array as="points">
              <mxPoint x="1618" y="3850" />
            </Array>
          </mxGeometry>
        </mxCell>
        <mxCell id="JH9okOF0Hea_XWlJzWy8-411" value="&amp;gt;" style="edgeLabel;html=1;align=center;verticalAlign=middle;resizable=0;points=[];fontSize=15;" vertex="1" connectable="0" parent="JH9okOF0Hea_XWlJzWy8-410">
          <mxGeometry relative="1" as="geometry">
            <mxPoint x="171" y="-1" as="offset" />
          </mxGeometry>
        </mxCell>
        <mxCell id="JH9okOF0Hea_XWlJzWy8-412" value="" style="ellipse;whiteSpace=wrap;html=1;aspect=fixed;" vertex="1" parent="1">
          <mxGeometry x="1578" y="3641.69" width="80" height="80" as="geometry" />
        </mxCell>
        <mxCell id="JH9okOF0Hea_XWlJzWy8-413" value="G" style="ellipse;whiteSpace=wrap;html=1;aspect=fixed;" vertex="1" parent="1">
          <mxGeometry x="1588" y="3651.69" width="60" height="60" as="geometry" />
        </mxCell>
        <mxCell id="JH9okOF0Hea_XWlJzWy8-414" value="" style="ellipse;whiteSpace=wrap;html=1;aspect=fixed;" vertex="1" parent="1">
          <mxGeometry x="1578" y="3511.69" width="80" height="80" as="geometry" />
        </mxCell>
        <mxCell id="JH9okOF0Hea_XWlJzWy8-415" value="GE" style="ellipse;whiteSpace=wrap;html=1;aspect=fixed;" vertex="1" parent="1">
          <mxGeometry x="1588" y="3521.69" width="60" height="60" as="geometry" />
        </mxCell>
        <mxCell id="JH9okOF0Hea_XWlJzWy8-416" value="" style="endArrow=classic;html=1;rounded=0;entryX=0.504;entryY=1.009;entryDx=0;entryDy=0;entryPerimeter=0;exitX=0.5;exitY=0;exitDx=0;exitDy=0;" edge="1" parent="1" source="JH9okOF0Hea_XWlJzWy8-412" target="JH9okOF0Hea_XWlJzWy8-414">
          <mxGeometry width="50" height="50" relative="1" as="geometry">
            <mxPoint x="1578" y="3671.69" as="sourcePoint" />
            <mxPoint x="1628" y="3621.69" as="targetPoint" />
          </mxGeometry>
        </mxCell>
        <mxCell id="JH9okOF0Hea_XWlJzWy8-417" value="=" style="edgeLabel;html=1;align=center;verticalAlign=middle;resizable=0;points=[];fontSize=15;" vertex="1" connectable="0" parent="JH9okOF0Hea_XWlJzWy8-416">
          <mxGeometry x="-0.1797" relative="1" as="geometry">
            <mxPoint as="offset" />
          </mxGeometry>
        </mxCell>
        <mxCell id="JH9okOF0Hea_XWlJzWy8-418" value="" style="group" vertex="1" connectable="0" parent="1">
          <mxGeometry x="1115" y="3640" width="80" height="80" as="geometry" />
        </mxCell>
        <mxCell id="JH9okOF0Hea_XWlJzWy8-419" value="" style="ellipse;whiteSpace=wrap;html=1;aspect=fixed;" vertex="1" parent="JH9okOF0Hea_XWlJzWy8-418">
          <mxGeometry width="80" height="80" as="geometry" />
        </mxCell>
        <mxCell id="JH9okOF0Hea_XWlJzWy8-420" value="Min" style="ellipse;whiteSpace=wrap;html=1;aspect=fixed;" vertex="1" parent="JH9okOF0Hea_XWlJzWy8-418">
          <mxGeometry x="10" y="10" width="60" height="60" as="geometry" />
        </mxCell>
        <mxCell id="JH9okOF0Hea_XWlJzWy8-421" value="" style="group" vertex="1" connectable="0" parent="1">
          <mxGeometry x="1205" y="3640" width="80" height="80" as="geometry" />
        </mxCell>
        <mxCell id="JH9okOF0Hea_XWlJzWy8-422" value="" style="ellipse;whiteSpace=wrap;html=1;aspect=fixed;" vertex="1" parent="JH9okOF0Hea_XWlJzWy8-421">
          <mxGeometry width="80" height="80" as="geometry" />
        </mxCell>
        <mxCell id="JH9okOF0Hea_XWlJzWy8-423" value="Plu" style="ellipse;whiteSpace=wrap;html=1;aspect=fixed;" vertex="1" parent="JH9okOF0Hea_XWlJzWy8-421">
          <mxGeometry x="10" y="10" width="60" height="60" as="geometry" />
        </mxCell>
        <mxCell id="JH9okOF0Hea_XWlJzWy8-424" value="" style="group" vertex="1" connectable="0" parent="1">
          <mxGeometry x="1025" y="3640" width="80" height="80" as="geometry" />
        </mxCell>
        <mxCell id="JH9okOF0Hea_XWlJzWy8-425" value="" style="ellipse;whiteSpace=wrap;html=1;aspect=fixed;" vertex="1" parent="JH9okOF0Hea_XWlJzWy8-424">
          <mxGeometry width="80" height="80" as="geometry" />
        </mxCell>
        <mxCell id="JH9okOF0Hea_XWlJzWy8-426" value="Div" style="ellipse;whiteSpace=wrap;html=1;aspect=fixed;" vertex="1" parent="JH9okOF0Hea_XWlJzWy8-424">
          <mxGeometry x="10" y="10" width="60" height="60" as="geometry" />
        </mxCell>
        <mxCell id="JH9okOF0Hea_XWlJzWy8-427" value="" style="group" vertex="1" connectable="0" parent="1">
          <mxGeometry x="935" y="3640" width="80" height="80" as="geometry" />
        </mxCell>
        <mxCell id="JH9okOF0Hea_XWlJzWy8-428" value="" style="ellipse;whiteSpace=wrap;html=1;aspect=fixed;" vertex="1" parent="JH9okOF0Hea_XWlJzWy8-427">
          <mxGeometry width="80" height="80" as="geometry" />
        </mxCell>
        <mxCell id="JH9okOF0Hea_XWlJzWy8-429" value="Mul" style="ellipse;whiteSpace=wrap;html=1;aspect=fixed;" vertex="1" parent="JH9okOF0Hea_XWlJzWy8-427">
          <mxGeometry x="10" y="10" width="60" height="60" as="geometry" />
        </mxCell>
        <mxCell id="JH9okOF0Hea_XWlJzWy8-430" value="" style="endArrow=classic;html=1;rounded=0;exitX=0.365;exitY=0.026;exitDx=0;exitDy=0;entryX=0.5;entryY=1;entryDx=0;entryDy=0;exitPerimeter=0;" edge="1" parent="1" source="JH9okOF0Hea_XWlJzWy8-389" target="JH9okOF0Hea_XWlJzWy8-428">
          <mxGeometry width="50" height="50" relative="1" as="geometry">
            <mxPoint x="985" y="3780" as="sourcePoint" />
            <mxPoint x="1035" y="3730" as="targetPoint" />
          </mxGeometry>
        </mxCell>
        <mxCell id="JH9okOF0Hea_XWlJzWy8-431" value="*" style="edgeLabel;html=1;align=center;verticalAlign=middle;resizable=0;points=[];" vertex="1" connectable="0" parent="JH9okOF0Hea_XWlJzWy8-430">
          <mxGeometry x="-0.0727" y="1" relative="1" as="geometry">
            <mxPoint as="offset" />
          </mxGeometry>
        </mxCell>
        <mxCell id="JH9okOF0Hea_XWlJzWy8-432" value="" style="endArrow=classic;html=1;rounded=0;" edge="1" parent="1" source="JH9okOF0Hea_XWlJzWy8-389" target="JH9okOF0Hea_XWlJzWy8-425">
          <mxGeometry width="50" height="50" relative="1" as="geometry">
            <mxPoint x="985" y="3780" as="sourcePoint" />
            <mxPoint x="1035" y="3730" as="targetPoint" />
          </mxGeometry>
        </mxCell>
        <mxCell id="JH9okOF0Hea_XWlJzWy8-433" value="/" style="edgeLabel;html=1;align=center;verticalAlign=middle;resizable=0;points=[];spacing=2;spacingRight=0;spacingTop=0;" vertex="1" connectable="0" parent="JH9okOF0Hea_XWlJzWy8-432">
          <mxGeometry x="0.0936" y="1" relative="1" as="geometry">
            <mxPoint x="-1" as="offset" />
          </mxGeometry>
        </mxCell>
        <mxCell id="JH9okOF0Hea_XWlJzWy8-434" value="" style="endArrow=classic;html=1;rounded=0;entryX=0;entryY=1;entryDx=0;entryDy=0;" edge="1" parent="1" source="JH9okOF0Hea_XWlJzWy8-389" target="JH9okOF0Hea_XWlJzWy8-419">
          <mxGeometry width="50" height="50" relative="1" as="geometry">
            <mxPoint x="1115" y="3780" as="sourcePoint" />
            <mxPoint x="1165" y="3730" as="targetPoint" />
          </mxGeometry>
        </mxCell>
        <mxCell id="JH9okOF0Hea_XWlJzWy8-435" value="-" style="edgeLabel;html=1;align=center;verticalAlign=middle;resizable=0;points=[];" vertex="1" connectable="0" parent="JH9okOF0Hea_XWlJzWy8-434">
          <mxGeometry x="0.0595" y="-1" relative="1" as="geometry">
            <mxPoint as="offset" />
          </mxGeometry>
        </mxCell>
        <mxCell id="JH9okOF0Hea_XWlJzWy8-436" value="" style="endArrow=classic;html=1;rounded=0;entryX=0.358;entryY=0.981;entryDx=0;entryDy=0;entryPerimeter=0;" edge="1" parent="1" source="JH9okOF0Hea_XWlJzWy8-389" target="JH9okOF0Hea_XWlJzWy8-422">
          <mxGeometry width="50" height="50" relative="1" as="geometry">
            <mxPoint x="1145" y="3790" as="sourcePoint" />
            <mxPoint x="1195" y="3740" as="targetPoint" />
          </mxGeometry>
        </mxCell>
        <mxCell id="JH9okOF0Hea_XWlJzWy8-437" value="+" style="edgeLabel;html=1;align=center;verticalAlign=middle;resizable=0;points=[];" vertex="1" connectable="0" parent="JH9okOF0Hea_XWlJzWy8-436">
          <mxGeometry x="-0.1301" relative="1" as="geometry">
            <mxPoint as="offset" />
          </mxGeometry>
        </mxCell>
        <mxCell id="JH9okOF0Hea_XWlJzWy8-438" value="" style="endArrow=classic;html=1;rounded=0;exitX=0.952;exitY=0.723;exitDx=0;exitDy=0;exitPerimeter=0;entryX=0.487;entryY=1.011;entryDx=0;entryDy=0;entryPerimeter=0;" edge="1" parent="1" source="JH9okOF0Hea_XWlJzWy8-389" target="JH9okOF0Hea_XWlJzWy8-440">
          <mxGeometry width="50" height="50" relative="1" as="geometry">
            <mxPoint x="1145" y="3849" as="sourcePoint" />
            <mxPoint x="1623.94" y="3720" as="targetPoint" />
            <Array as="points">
              <mxPoint x="1718" y="3860" />
            </Array>
          </mxGeometry>
        </mxCell>
        <mxCell id="JH9okOF0Hea_XWlJzWy8-439" value="!" style="edgeLabel;html=1;align=center;verticalAlign=middle;resizable=0;points=[];fontSize=15;" vertex="1" connectable="0" parent="JH9okOF0Hea_XWlJzWy8-438">
          <mxGeometry relative="1" as="geometry">
            <mxPoint x="205" y="1" as="offset" />
          </mxGeometry>
        </mxCell>
        <mxCell id="JH9okOF0Hea_XWlJzWy8-440" value="NOT" style="ellipse;whiteSpace=wrap;html=1;aspect=fixed;" vertex="1" parent="1">
          <mxGeometry x="1689" y="3651.69" width="60" height="60" as="geometry" />
        </mxCell>
        <mxCell id="JH9okOF0Hea_XWlJzWy8-441" value="" style="ellipse;whiteSpace=wrap;html=1;aspect=fixed;" vertex="1" parent="1">
          <mxGeometry x="1679" y="3511.69" width="80" height="80" as="geometry" />
        </mxCell>
        <mxCell id="JH9okOF0Hea_XWlJzWy8-442" value="NE" style="ellipse;whiteSpace=wrap;html=1;aspect=fixed;" vertex="1" parent="1">
          <mxGeometry x="1689" y="3521.69" width="60" height="60" as="geometry" />
        </mxCell>
        <mxCell id="JH9okOF0Hea_XWlJzWy8-443" value="" style="endArrow=classic;html=1;rounded=0;entryX=0.504;entryY=1.009;entryDx=0;entryDy=0;entryPerimeter=0;exitX=0.5;exitY=0;exitDx=0;exitDy=0;" edge="1" parent="1" source="JH9okOF0Hea_XWlJzWy8-440" target="JH9okOF0Hea_XWlJzWy8-441">
          <mxGeometry width="50" height="50" relative="1" as="geometry">
            <mxPoint x="1719" y="3641.69" as="sourcePoint" />
            <mxPoint x="1729" y="3621.69" as="targetPoint" />
          </mxGeometry>
        </mxCell>
        <mxCell id="JH9okOF0Hea_XWlJzWy8-444" value="=" style="edgeLabel;html=1;align=center;verticalAlign=middle;resizable=0;points=[];fontSize=15;" vertex="1" connectable="0" parent="JH9okOF0Hea_XWlJzWy8-443">
          <mxGeometry x="-0.1797" relative="1" as="geometry">
            <mxPoint as="offset" />
          </mxGeometry>
        </mxCell>
        <mxCell id="JH9okOF0Hea_XWlJzWy8-445" value="" style="endArrow=classic;html=1;rounded=0;exitX=0.093;exitY=0.218;exitDx=0;exitDy=0;entryX=0.5;entryY=1;entryDx=0;entryDy=0;exitPerimeter=0;" edge="1" parent="1" source="JH9okOF0Hea_XWlJzWy8-389" target="JH9okOF0Hea_XWlJzWy8-448">
          <mxGeometry width="50" height="50" relative="1" as="geometry">
            <mxPoint x="887" y="3812" as="sourcePoint" />
            <mxPoint x="945" y="3730" as="targetPoint" />
          </mxGeometry>
        </mxCell>
        <mxCell id="JH9okOF0Hea_XWlJzWy8-446" value="(" style="edgeLabel;html=1;align=center;verticalAlign=middle;resizable=0;points=[];" vertex="1" connectable="0" parent="JH9okOF0Hea_XWlJzWy8-445">
          <mxGeometry x="-0.0727" y="1" relative="1" as="geometry">
            <mxPoint as="offset" />
          </mxGeometry>
        </mxCell>
        <mxCell id="JH9okOF0Hea_XWlJzWy8-447" value="" style="group" vertex="1" connectable="0" parent="1">
          <mxGeometry x="845" y="3640" width="80" height="80" as="geometry" />
        </mxCell>
        <mxCell id="JH9okOF0Hea_XWlJzWy8-448" value="" style="ellipse;whiteSpace=wrap;html=1;aspect=fixed;" vertex="1" parent="JH9okOF0Hea_XWlJzWy8-447">
          <mxGeometry width="80" height="80" as="geometry" />
        </mxCell>
        <mxCell id="JH9okOF0Hea_XWlJzWy8-449" value="Lpar" style="ellipse;whiteSpace=wrap;html=1;aspect=fixed;" vertex="1" parent="JH9okOF0Hea_XWlJzWy8-447">
          <mxGeometry x="10" y="10" width="60" height="60" as="geometry" />
        </mxCell>
        <mxCell id="JH9okOF0Hea_XWlJzWy8-450" value="" style="group" vertex="1" connectable="0" parent="1">
          <mxGeometry x="755" y="3640" width="80" height="80" as="geometry" />
        </mxCell>
        <mxCell id="JH9okOF0Hea_XWlJzWy8-451" value="" style="ellipse;whiteSpace=wrap;html=1;aspect=fixed;" vertex="1" parent="JH9okOF0Hea_XWlJzWy8-450">
          <mxGeometry width="80" height="80" as="geometry" />
        </mxCell>
        <mxCell id="JH9okOF0Hea_XWlJzWy8-452" value="Rpar" style="ellipse;whiteSpace=wrap;html=1;aspect=fixed;" vertex="1" parent="JH9okOF0Hea_XWlJzWy8-450">
          <mxGeometry x="10" y="10" width="60" height="60" as="geometry" />
        </mxCell>
        <mxCell id="JH9okOF0Hea_XWlJzWy8-453" value="" style="endArrow=classic;html=1;rounded=0;entryX=1;entryY=1;entryDx=0;entryDy=0;exitX=0;exitY=0.45;exitDx=0;exitDy=0;exitPerimeter=0;" edge="1" parent="1" source="JH9okOF0Hea_XWlJzWy8-389" target="JH9okOF0Hea_XWlJzWy8-451">
          <mxGeometry width="50" height="50" relative="1" as="geometry">
            <mxPoint x="917" y="3898" as="sourcePoint" />
            <mxPoint x="895" y="3800" as="targetPoint" />
          </mxGeometry>
        </mxCell>
        <mxCell id="JH9okOF0Hea_XWlJzWy8-454" value=")" style="edgeLabel;html=1;align=center;verticalAlign=middle;resizable=0;points=[];" vertex="1" connectable="0" parent="JH9okOF0Hea_XWlJzWy8-453">
          <mxGeometry x="-0.0832" y="1" relative="1" as="geometry">
            <mxPoint as="offset" />
          </mxGeometry>
        </mxCell>
        <mxCell id="JH9okOF0Hea_XWlJzWy8-455" value="" style="group" vertex="1" connectable="0" parent="1">
          <mxGeometry x="665" y="3640" width="80" height="80" as="geometry" />
        </mxCell>
        <mxCell id="JH9okOF0Hea_XWlJzWy8-456" value="" style="ellipse;whiteSpace=wrap;html=1;aspect=fixed;" vertex="1" parent="JH9okOF0Hea_XWlJzWy8-455">
          <mxGeometry width="80" height="80" as="geometry" />
        </mxCell>
        <mxCell id="JH9okOF0Hea_XWlJzWy8-457" value="CLpar" style="ellipse;whiteSpace=wrap;html=1;aspect=fixed;" vertex="1" parent="JH9okOF0Hea_XWlJzWy8-455">
          <mxGeometry x="10" y="10" width="60" height="60" as="geometry" />
        </mxCell>
        <mxCell id="JH9okOF0Hea_XWlJzWy8-458" value="" style="endArrow=classic;html=1;rounded=0;entryX=0.509;entryY=1.039;entryDx=0;entryDy=0;entryPerimeter=0;exitX=0;exitY=0.5;exitDx=0;exitDy=0;" edge="1" parent="1" source="JH9okOF0Hea_XWlJzWy8-389" target="JH9okOF0Hea_XWlJzWy8-456">
          <mxGeometry width="50" height="50" relative="1" as="geometry">
            <mxPoint x="706" y="3810" as="sourcePoint" />
            <mxPoint x="715.0042712474619" y="3742.284271247462" as="targetPoint" />
            <Array as="points">
              <mxPoint x="706" y="3840" />
            </Array>
          </mxGeometry>
        </mxCell>
        <mxCell id="JH9okOF0Hea_XWlJzWy8-459" value="{" style="edgeLabel;html=1;align=center;verticalAlign=middle;resizable=0;points=[];" vertex="1" connectable="0" parent="JH9okOF0Hea_XWlJzWy8-458">
          <mxGeometry x="-0.0832" y="1" relative="1" as="geometry">
            <mxPoint as="offset" />
          </mxGeometry>
        </mxCell>
        <mxCell id="JH9okOF0Hea_XWlJzWy8-460" value="" style="group" vertex="1" connectable="0" parent="1">
          <mxGeometry x="575" y="3640" width="80" height="80" as="geometry" />
        </mxCell>
        <mxCell id="JH9okOF0Hea_XWlJzWy8-461" value="" style="ellipse;whiteSpace=wrap;html=1;aspect=fixed;" vertex="1" parent="JH9okOF0Hea_XWlJzWy8-460">
          <mxGeometry width="80" height="80" as="geometry" />
        </mxCell>
        <mxCell id="JH9okOF0Hea_XWlJzWy8-462" value="CRpar" style="ellipse;whiteSpace=wrap;html=1;aspect=fixed;" vertex="1" parent="JH9okOF0Hea_XWlJzWy8-460">
          <mxGeometry x="10" y="10" width="60" height="60" as="geometry" />
        </mxCell>
        <mxCell id="JH9okOF0Hea_XWlJzWy8-463" value="" style="endArrow=classic;html=1;rounded=0;entryX=0.509;entryY=1.039;entryDx=0;entryDy=0;entryPerimeter=0;exitX=0.008;exitY=0.61;exitDx=0;exitDy=0;exitPerimeter=0;" edge="1" parent="1" source="JH9okOF0Hea_XWlJzWy8-389" target="JH9okOF0Hea_XWlJzWy8-461">
          <mxGeometry width="50" height="50" relative="1" as="geometry">
            <mxPoint x="875" y="3840" as="sourcePoint" />
            <mxPoint x="625.0042712474619" y="3742.284271247462" as="targetPoint" />
            <Array as="points">
              <mxPoint x="616" y="3850" />
            </Array>
          </mxGeometry>
        </mxCell>
        <mxCell id="JH9okOF0Hea_XWlJzWy8-464" value="}" style="edgeLabel;html=1;align=center;verticalAlign=middle;resizable=0;points=[];" vertex="1" connectable="0" parent="JH9okOF0Hea_XWlJzWy8-463">
          <mxGeometry x="0.3129" y="1" relative="1" as="geometry">
            <mxPoint as="offset" />
          </mxGeometry>
        </mxCell>
        <mxCell id="JH9okOF0Hea_XWlJzWy8-465" value="" style="group" vertex="1" connectable="0" parent="1">
          <mxGeometry x="500" y="3820" width="80" height="80" as="geometry" />
        </mxCell>
        <mxCell id="JH9okOF0Hea_XWlJzWy8-466" value="" style="ellipse;whiteSpace=wrap;html=1;aspect=fixed;" vertex="1" parent="JH9okOF0Hea_XWlJzWy8-465">
          <mxGeometry width="80" height="80" as="geometry" />
        </mxCell>
        <mxCell id="JH9okOF0Hea_XWlJzWy8-467" value="Semi" style="ellipse;whiteSpace=wrap;html=1;aspect=fixed;" vertex="1" parent="JH9okOF0Hea_XWlJzWy8-465">
          <mxGeometry x="10" y="10" width="60" height="60" as="geometry" />
        </mxCell>
        <mxCell id="JH9okOF0Hea_XWlJzWy8-468" value="" style="endArrow=classic;html=1;rounded=0;exitX=0.059;exitY=0.747;exitDx=0;exitDy=0;exitPerimeter=0;entryX=1.006;entryY=0.516;entryDx=0;entryDy=0;entryPerimeter=0;" edge="1" parent="1" source="JH9okOF0Hea_XWlJzWy8-389" target="JH9okOF0Hea_XWlJzWy8-466">
          <mxGeometry width="50" height="50" relative="1" as="geometry">
            <mxPoint x="735" y="3890" as="sourcePoint" />
            <mxPoint x="785" y="3840" as="targetPoint" />
            <Array as="points">
              <mxPoint x="725" y="3860" />
            </Array>
          </mxGeometry>
        </mxCell>
        <mxCell id="JH9okOF0Hea_XWlJzWy8-469" value=";" style="edgeLabel;html=1;align=center;verticalAlign=middle;resizable=0;points=[];" vertex="1" connectable="0" parent="JH9okOF0Hea_XWlJzWy8-468">
          <mxGeometry x="0.0071" y="1" relative="1" as="geometry">
            <mxPoint as="offset" />
          </mxGeometry>
        </mxCell>
        <mxCell id="JH9okOF0Hea_XWlJzWy8-470" value="" style="group" vertex="1" connectable="0" parent="1">
          <mxGeometry x="500" y="3910" width="80" height="80" as="geometry" />
        </mxCell>
        <mxCell id="JH9okOF0Hea_XWlJzWy8-471" value="" style="ellipse;whiteSpace=wrap;html=1;aspect=fixed;" vertex="1" parent="JH9okOF0Hea_XWlJzWy8-470">
          <mxGeometry width="80" height="80" as="geometry" />
        </mxCell>
        <mxCell id="JH9okOF0Hea_XWlJzWy8-472" value="Col" style="ellipse;whiteSpace=wrap;html=1;aspect=fixed;" vertex="1" parent="JH9okOF0Hea_XWlJzWy8-470">
          <mxGeometry x="10" y="10" width="60" height="60" as="geometry" />
        </mxCell>
        <mxCell id="JH9okOF0Hea_XWlJzWy8-473" value="" style="endArrow=classic;html=1;rounded=0;exitX=0.116;exitY=0.826;exitDx=0;exitDy=0;exitPerimeter=0;entryX=1;entryY=0.5;entryDx=0;entryDy=0;" edge="1" parent="1" source="JH9okOF0Hea_XWlJzWy8-389" target="JH9okOF0Hea_XWlJzWy8-471">
          <mxGeometry width="50" height="50" relative="1" as="geometry">
            <mxPoint x="975" y="3870" as="sourcePoint" />
            <mxPoint x="645" y="3950" as="targetPoint" />
            <Array as="points">
              <mxPoint x="665" y="3870" />
              <mxPoint x="665" y="3950" />
            </Array>
          </mxGeometry>
        </mxCell>
        <mxCell id="JH9okOF0Hea_XWlJzWy8-474" value=":" style="edgeLabel;html=1;align=center;verticalAlign=middle;resizable=0;points=[];" vertex="1" connectable="0" parent="JH9okOF0Hea_XWlJzWy8-473">
          <mxGeometry x="0.0071" y="1" relative="1" as="geometry">
            <mxPoint x="-71" y="30" as="offset" />
          </mxGeometry>
        </mxCell>
        <mxCell id="JH9okOF0Hea_XWlJzWy8-475" value="" style="endArrow=classic;html=1;rounded=0;exitX=0.204;exitY=0.909;exitDx=0;exitDy=0;exitPerimeter=0;entryX=1;entryY=0.5;entryDx=0;entryDy=0;" edge="1" parent="1" source="JH9okOF0Hea_XWlJzWy8-389" target="JH9okOF0Hea_XWlJzWy8-478">
          <mxGeometry width="50" height="50" relative="1" as="geometry">
            <mxPoint x="974" y="3960" as="sourcePoint" />
            <mxPoint x="645" y="4044" as="targetPoint" />
            <Array as="points">
              <mxPoint x="695" y="3880" />
              <mxPoint x="695" y="4044" />
            </Array>
          </mxGeometry>
        </mxCell>
        <mxCell id="JH9okOF0Hea_XWlJzWy8-476" value="|" style="edgeLabel;html=1;align=center;verticalAlign=middle;resizable=0;points=[];" vertex="1" connectable="0" parent="JH9okOF0Hea_XWlJzWy8-475">
          <mxGeometry x="0.3303" relative="1" as="geometry">
            <mxPoint as="offset" />
          </mxGeometry>
        </mxCell>
        <mxCell id="JH9okOF0Hea_XWlJzWy8-477" value="" style="group" vertex="1" connectable="0" parent="1">
          <mxGeometry x="500" y="4004" width="80" height="80" as="geometry" />
        </mxCell>
        <mxCell id="JH9okOF0Hea_XWlJzWy8-478" value="" style="ellipse;whiteSpace=wrap;html=1;aspect=fixed;" vertex="1" parent="JH9okOF0Hea_XWlJzWy8-477">
          <mxGeometry width="80" height="80" as="geometry" />
        </mxCell>
        <mxCell id="JH9okOF0Hea_XWlJzWy8-479" value="Bar" style="ellipse;whiteSpace=wrap;html=1;aspect=fixed;" vertex="1" parent="JH9okOF0Hea_XWlJzWy8-477">
          <mxGeometry x="10" y="10" width="60" height="60" as="geometry" />
        </mxCell>
        <mxCell id="JH9okOF0Hea_XWlJzWy8-480" value="" style="group" vertex="1" connectable="0" parent="1">
          <mxGeometry x="500" y="4096" width="80" height="80" as="geometry" />
        </mxCell>
        <mxCell id="JH9okOF0Hea_XWlJzWy8-481" value="" style="ellipse;whiteSpace=wrap;html=1;aspect=fixed;" vertex="1" parent="JH9okOF0Hea_XWlJzWy8-480">
          <mxGeometry width="80" height="80" as="geometry" />
        </mxCell>
        <mxCell id="JH9okOF0Hea_XWlJzWy8-482" value="Com" style="ellipse;whiteSpace=wrap;html=1;aspect=fixed;" vertex="1" parent="JH9okOF0Hea_XWlJzWy8-480">
          <mxGeometry x="10" y="10" width="60" height="60" as="geometry" />
        </mxCell>
        <mxCell id="JH9okOF0Hea_XWlJzWy8-483" value="" style="endArrow=classic;html=1;rounded=0;exitX=0.306;exitY=0.96;exitDx=0;exitDy=0;exitPerimeter=0;entryX=1;entryY=0.5;entryDx=0;entryDy=0;" edge="1" parent="1" source="JH9okOF0Hea_XWlJzWy8-389" target="JH9okOF0Hea_XWlJzWy8-481">
          <mxGeometry width="50" height="50" relative="1" as="geometry">
            <mxPoint x="980" y="3965" as="sourcePoint" />
            <mxPoint x="645" y="4136" as="targetPoint" />
            <Array as="points">
              <mxPoint x="715" y="3890" />
              <mxPoint x="715" y="4140" />
            </Array>
          </mxGeometry>
        </mxCell>
        <mxCell id="JH9okOF0Hea_XWlJzWy8-484" value="&lt;div&gt;,&lt;/div&gt;" style="edgeLabel;html=1;align=center;verticalAlign=middle;resizable=0;points=[];" vertex="1" connectable="0" parent="JH9okOF0Hea_XWlJzWy8-483">
          <mxGeometry x="0.3303" relative="1" as="geometry">
            <mxPoint as="offset" />
          </mxGeometry>
        </mxCell>
        <mxCell id="JH9okOF0Hea_XWlJzWy8-485" value="" style="endArrow=classic;html=1;rounded=0;exitX=0.495;exitY=-0.03;exitDx=0;exitDy=0;exitPerimeter=0;" edge="1" parent="1" source="JH9okOF0Hea_XWlJzWy8-425" target="JH9okOF0Hea_XWlJzWy8-488">
          <mxGeometry width="50" height="50" relative="1" as="geometry">
            <mxPoint x="1055" y="3643" as="sourcePoint" />
            <mxPoint x="1071" y="3570" as="targetPoint" />
          </mxGeometry>
        </mxCell>
        <mxCell id="JH9okOF0Hea_XWlJzWy8-486" value="/" style="edgeLabel;html=1;align=center;verticalAlign=middle;resizable=0;points=[];spacing=2;spacingRight=0;spacingTop=0;" vertex="1" connectable="0" parent="JH9okOF0Hea_XWlJzWy8-485">
          <mxGeometry x="0.0936" y="1" relative="1" as="geometry">
            <mxPoint x="-1" as="offset" />
          </mxGeometry>
        </mxCell>
        <mxCell id="JH9okOF0Hea_XWlJzWy8-487" value="" style="group" vertex="1" connectable="0" parent="1">
          <mxGeometry x="1025" y="3470" width="80" height="80" as="geometry" />
        </mxCell>
        <mxCell id="JH9okOF0Hea_XWlJzWy8-488" value="" style="ellipse;whiteSpace=wrap;html=1;aspect=fixed;" vertex="1" parent="JH9okOF0Hea_XWlJzWy8-487">
          <mxGeometry width="80" height="80" as="geometry" />
        </mxCell>
        <mxCell id="JH9okOF0Hea_XWlJzWy8-489" value="Comme" style="ellipse;whiteSpace=wrap;html=1;aspect=fixed;" vertex="1" parent="JH9okOF0Hea_XWlJzWy8-487">
          <mxGeometry x="10" y="10" width="60" height="60" as="geometry" />
        </mxCell>
        <mxCell id="JH9okOF0Hea_XWlJzWy8-490" value="" style="curved=1;endArrow=classic;html=1;rounded=0;entryX=0.835;entryY=0.133;entryDx=0;entryDy=0;exitX=0;exitY=0;exitDx=0;exitDy=0;entryPerimeter=0;" edge="1" parent="JH9okOF0Hea_XWlJzWy8-487" source="JH9okOF0Hea_XWlJzWy8-488" target="JH9okOF0Hea_XWlJzWy8-488">
          <mxGeometry width="50" height="50" relative="1" as="geometry">
            <mxPoint x="11" y="10" as="sourcePoint" />
            <mxPoint x="68" y="9" as="targetPoint" />
            <Array as="points">
              <mxPoint x="-39.99999999999997" y="-83" />
              <mxPoint x="130.00000000000003" y="-73" />
            </Array>
          </mxGeometry>
        </mxCell>
        <mxCell id="JH9okOF0Hea_XWlJzWy8-491" value="&lt;span lang=&quot;cs&quot; class=&quot;BxUVEf ILfuVd&quot;&gt;&lt;span class=&quot;hgKElc&quot;&gt;Σ-{EOL,EOF}&lt;/span&gt;&lt;/span&gt;" style="edgeLabel;html=1;align=center;verticalAlign=middle;resizable=0;points=[];" vertex="1" connectable="0" parent="JH9okOF0Hea_XWlJzWy8-490">
          <mxGeometry x="-0.0079" y="1" relative="1" as="geometry">
            <mxPoint as="offset" />
          </mxGeometry>
        </mxCell>
        <mxCell id="JH9okOF0Hea_XWlJzWy8-492" value="" style="endArrow=classic;html=1;rounded=0;entryX=0.747;entryY=0.055;entryDx=0;entryDy=0;entryPerimeter=0;exitX=0.348;exitY=0.981;exitDx=0;exitDy=0;exitPerimeter=0;" edge="1" parent="1" source="JH9okOF0Hea_XWlJzWy8-389" target="JH9okOF0Hea_XWlJzWy8-495">
          <mxGeometry width="50" height="50" relative="1" as="geometry">
            <mxPoint x="995" y="3890" as="sourcePoint" />
            <mxPoint x="1299.94" y="3910" as="targetPoint" />
          </mxGeometry>
        </mxCell>
        <mxCell id="JH9okOF0Hea_XWlJzWy8-493" value="_" style="edgeLabel;html=1;align=center;verticalAlign=middle;resizable=0;points=[];" vertex="1" connectable="0" parent="JH9okOF0Hea_XWlJzWy8-492">
          <mxGeometry x="-0.1301" relative="1" as="geometry">
            <mxPoint as="offset" />
          </mxGeometry>
        </mxCell>
        <mxCell id="JH9okOF0Hea_XWlJzWy8-494" value="" style="group" vertex="1" connectable="0" parent="1">
          <mxGeometry x="735" y="3910" width="80" height="80" as="geometry" />
        </mxCell>
        <mxCell id="JH9okOF0Hea_XWlJzWy8-495" value="" style="ellipse;whiteSpace=wrap;html=1;aspect=fixed;" vertex="1" parent="JH9okOF0Hea_XWlJzWy8-494">
          <mxGeometry width="80" height="80" as="geometry" />
        </mxCell>
        <mxCell id="JH9okOF0Hea_XWlJzWy8-496" value="Void" style="ellipse;whiteSpace=wrap;html=1;aspect=fixed;" vertex="1" parent="JH9okOF0Hea_XWlJzWy8-494">
          <mxGeometry x="10" y="10" width="60" height="60" as="geometry" />
        </mxCell>
        <mxCell id="JH9okOF0Hea_XWlJzWy8-497" value="" style="group" vertex="1" connectable="0" parent="1">
          <mxGeometry x="775" y="4050" width="80" height="80" as="geometry" />
        </mxCell>
        <mxCell id="JH9okOF0Hea_XWlJzWy8-498" value="" style="ellipse;whiteSpace=wrap;html=1;aspect=fixed;" vertex="1" parent="JH9okOF0Hea_XWlJzWy8-497">
          <mxGeometry width="80" height="80" as="geometry" />
        </mxCell>
        <mxCell id="JH9okOF0Hea_XWlJzWy8-499" value="Id/Key" style="ellipse;whiteSpace=wrap;html=1;aspect=fixed;" vertex="1" parent="JH9okOF0Hea_XWlJzWy8-497">
          <mxGeometry x="10" y="10" width="60" height="60" as="geometry" />
        </mxCell>
        <mxCell id="JH9okOF0Hea_XWlJzWy8-500" value="" style="endArrow=classic;html=1;rounded=0;entryX=1;entryY=0;entryDx=0;entryDy=0;exitX=0.379;exitY=1;exitDx=0;exitDy=0;exitPerimeter=0;" edge="1" parent="1" source="JH9okOF0Hea_XWlJzWy8-389" target="JH9okOF0Hea_XWlJzWy8-498">
          <mxGeometry width="50" height="50" relative="1" as="geometry">
            <mxPoint x="1093" y="3920" as="sourcePoint" />
            <mxPoint x="1399.94" y="3950" as="targetPoint" />
          </mxGeometry>
        </mxCell>
        <mxCell id="JH9okOF0Hea_XWlJzWy8-501" value="{a-z, A-Z}" style="edgeLabel;html=1;align=center;verticalAlign=middle;resizable=0;points=[];" vertex="1" connectable="0" parent="JH9okOF0Hea_XWlJzWy8-500">
          <mxGeometry x="-0.1301" relative="1" as="geometry">
            <mxPoint as="offset" />
          </mxGeometry>
        </mxCell>
        <mxCell id="JH9okOF0Hea_XWlJzWy8-502" value="" style="curved=1;endArrow=classic;html=1;rounded=0;" edge="1" parent="1">
          <mxGeometry width="50" height="50" relative="1" as="geometry">
            <mxPoint x="785" y="4116" as="sourcePoint" />
            <mxPoint x="845" y="4116" as="targetPoint" />
            <Array as="points">
              <mxPoint x="725" y="4196" />
              <mxPoint x="895" y="4206" />
            </Array>
          </mxGeometry>
        </mxCell>
        <mxCell id="JH9okOF0Hea_XWlJzWy8-503" value="&lt;div&gt;{a-z, A-Z, 0-9, _}&lt;/div&gt;" style="edgeLabel;html=1;align=center;verticalAlign=middle;resizable=0;points=[];" vertex="1" connectable="0" parent="JH9okOF0Hea_XWlJzWy8-502">
          <mxGeometry x="-0.0079" y="1" relative="1" as="geometry">
            <mxPoint as="offset" />
          </mxGeometry>
        </mxCell>
        <mxCell id="JH9okOF0Hea_XWlJzWy8-504" value="" style="endArrow=classic;html=1;rounded=0;entryX=0;entryY=0;entryDx=0;entryDy=0;exitX=0.5;exitY=1;exitDx=0;exitDy=0;" edge="1" parent="1" source="JH9okOF0Hea_XWlJzWy8-495" target="JH9okOF0Hea_XWlJzWy8-498">
          <mxGeometry width="50" height="50" relative="1" as="geometry">
            <mxPoint x="883" y="4020" as="sourcePoint" />
            <mxPoint x="805" y="4094" as="targetPoint" />
          </mxGeometry>
        </mxCell>
        <mxCell id="JH9okOF0Hea_XWlJzWy8-505" value="&lt;div&gt;{a-z, A-Z, 0-9, _}&lt;/div&gt;" style="edgeLabel;html=1;align=center;verticalAlign=middle;resizable=0;points=[];" vertex="1" connectable="0" parent="JH9okOF0Hea_XWlJzWy8-504">
          <mxGeometry x="-0.1301" relative="1" as="geometry">
            <mxPoint as="offset" />
          </mxGeometry>
        </mxCell>
        <mxCell id="JH9okOF0Hea_XWlJzWy8-506" value="" style="group" vertex="1" connectable="0" parent="1">
          <mxGeometry x="965" y="4090" width="80" height="80" as="geometry" />
        </mxCell>
        <mxCell id="JH9okOF0Hea_XWlJzWy8-507" value="" style="ellipse;whiteSpace=wrap;html=1;aspect=fixed;" vertex="1" parent="JH9okOF0Hea_XWlJzWy8-506">
          <mxGeometry width="80" height="80" as="geometry" />
        </mxCell>
        <mxCell id="JH9okOF0Hea_XWlJzWy8-508" value="Int" style="ellipse;whiteSpace=wrap;html=1;aspect=fixed;" vertex="1" parent="JH9okOF0Hea_XWlJzWy8-506">
          <mxGeometry x="10" y="10" width="60" height="60" as="geometry" />
        </mxCell>
        <mxCell id="JH9okOF0Hea_XWlJzWy8-509" value="" style="curved=1;endArrow=classic;html=1;rounded=0;exitX=0.063;exitY=0.248;exitDx=0;exitDy=0;entryX=0.065;entryY=0.776;entryDx=0;entryDy=0;exitPerimeter=0;entryPerimeter=0;" edge="1" parent="JH9okOF0Hea_XWlJzWy8-506" source="JH9okOF0Hea_XWlJzWy8-507" target="JH9okOF0Hea_XWlJzWy8-507">
          <mxGeometry width="50" height="50" relative="1" as="geometry">
            <mxPoint x="3.759999999999991" y="13.599999999999909" as="sourcePoint" />
            <mxPoint x="11.715728752538325" y="58.284271247461675" as="targetPoint" />
            <Array as="points">
              <mxPoint x="-40" y="-10" />
              <mxPoint x="-40" y="90" />
            </Array>
          </mxGeometry>
        </mxCell>
        <mxCell id="JH9okOF0Hea_XWlJzWy8-510" value="&lt;div&gt;{0-9}&lt;/div&gt;" style="edgeLabel;html=1;align=center;verticalAlign=middle;resizable=0;points=[];" vertex="1" connectable="0" parent="JH9okOF0Hea_XWlJzWy8-509">
          <mxGeometry x="-0.0079" y="1" relative="1" as="geometry">
            <mxPoint x="-1" y="1" as="offset" />
          </mxGeometry>
        </mxCell>
        <mxCell id="JH9okOF0Hea_XWlJzWy8-511" value="" style="endArrow=classic;html=1;rounded=0;entryX=0.5;entryY=0;entryDx=0;entryDy=0;exitX=0.5;exitY=1;exitDx=0;exitDy=0;" edge="1" parent="1" source="JH9okOF0Hea_XWlJzWy8-389" target="JH9okOF0Hea_XWlJzWy8-507">
          <mxGeometry width="50" height="50" relative="1" as="geometry">
            <mxPoint x="1203" y="4040" as="sourcePoint" />
            <mxPoint x="1509.94" y="4072" as="targetPoint" />
          </mxGeometry>
        </mxCell>
        <mxCell id="JH9okOF0Hea_XWlJzWy8-512" value="{0-9}" style="edgeLabel;html=1;align=center;verticalAlign=middle;resizable=0;points=[];" vertex="1" connectable="0" parent="JH9okOF0Hea_XWlJzWy8-511">
          <mxGeometry x="-0.1301" relative="1" as="geometry">
            <mxPoint as="offset" />
          </mxGeometry>
        </mxCell>
        <mxCell id="JH9okOF0Hea_XWlJzWy8-513" value="" style="endArrow=classic;html=1;rounded=0;exitX=0.5;exitY=1;exitDx=0;exitDy=0;entryX=1;entryY=0.5;entryDx=0;entryDy=0;" edge="1" parent="1" source="JH9okOF0Hea_XWlJzWy8-507" target="JH9okOF0Hea_XWlJzWy8-515">
          <mxGeometry width="50" height="50" relative="1" as="geometry">
            <mxPoint x="994.82" y="4170" as="sourcePoint" />
            <mxPoint x="994.92" y="4220" as="targetPoint" />
            <Array as="points">
              <mxPoint x="1005" y="4230" />
            </Array>
          </mxGeometry>
        </mxCell>
        <mxCell id="JH9okOF0Hea_XWlJzWy8-514" value="&lt;font style=&quot;font-size: 15px;&quot;&gt;.&lt;/font&gt;" style="edgeLabel;html=1;align=center;verticalAlign=middle;resizable=0;points=[];" vertex="1" connectable="0" parent="JH9okOF0Hea_XWlJzWy8-513">
          <mxGeometry x="-0.1301" relative="1" as="geometry">
            <mxPoint x="-20" y="8" as="offset" />
          </mxGeometry>
        </mxCell>
        <mxCell id="JH9okOF0Hea_XWlJzWy8-515" value="Dot_Flo" style="ellipse;whiteSpace=wrap;html=1;aspect=fixed;" vertex="1" parent="1">
          <mxGeometry x="885" y="4200" width="60" height="60" as="geometry" />
        </mxCell>
        <mxCell id="JH9okOF0Hea_XWlJzWy8-516" value="" style="group" vertex="1" connectable="0" parent="1">
          <mxGeometry x="965" y="4330" width="80" height="80" as="geometry" />
        </mxCell>
        <mxCell id="JH9okOF0Hea_XWlJzWy8-517" value="" style="ellipse;whiteSpace=wrap;html=1;aspect=fixed;" vertex="1" parent="JH9okOF0Hea_XWlJzWy8-516">
          <mxGeometry width="80" height="80" as="geometry" />
        </mxCell>
        <mxCell id="JH9okOF0Hea_XWlJzWy8-518" value="Float_exp" style="ellipse;whiteSpace=wrap;html=1;aspect=fixed;" vertex="1" parent="JH9okOF0Hea_XWlJzWy8-516">
          <mxGeometry x="10" y="10" width="60" height="60" as="geometry" />
        </mxCell>
        <mxCell id="JH9okOF0Hea_XWlJzWy8-519" value="" style="curved=1;endArrow=classic;html=1;rounded=0;exitX=0.047;exitY=0.295;exitDx=0;exitDy=0;entryX=0;entryY=1;entryDx=0;entryDy=0;exitPerimeter=0;" edge="1" parent="JH9okOF0Hea_XWlJzWy8-516" source="JH9okOF0Hea_XWlJzWy8-517" target="JH9okOF0Hea_XWlJzWy8-517">
          <mxGeometry width="50" height="50" relative="1" as="geometry">
            <mxPoint x="-68.2842712474619" y="50.004271247461475" as="sourcePoint" />
            <mxPoint x="-11.71572875253787" y="50.00427124746193" as="targetPoint" />
            <Array as="points">
              <mxPoint x="-40" />
              <mxPoint x="-40" y="100" />
            </Array>
          </mxGeometry>
        </mxCell>
        <mxCell id="JH9okOF0Hea_XWlJzWy8-520" value="&lt;div&gt;{0-9}&lt;/div&gt;" style="edgeLabel;html=1;align=center;verticalAlign=middle;resizable=0;points=[];" vertex="1" connectable="0" parent="JH9okOF0Hea_XWlJzWy8-519">
          <mxGeometry x="-0.0079" y="1" relative="1" as="geometry">
            <mxPoint x="-1" y="-9" as="offset" />
          </mxGeometry>
        </mxCell>
        <mxCell id="JH9okOF0Hea_XWlJzWy8-521" value="" style="endArrow=classic;html=1;rounded=0;exitX=1;exitY=0.5;exitDx=0;exitDy=0;" edge="1" parent="1" source="JH9okOF0Hea_XWlJzWy8-507">
          <mxGeometry width="50" height="50" relative="1" as="geometry">
            <mxPoint x="1075" y="4130" as="sourcePoint" />
            <mxPoint x="1075" y="4220" as="targetPoint" />
            <Array as="points">
              <mxPoint x="1075" y="4130" />
            </Array>
          </mxGeometry>
        </mxCell>
        <mxCell id="JH9okOF0Hea_XWlJzWy8-522" value="{e,E}" style="edgeLabel;html=1;align=center;verticalAlign=middle;resizable=0;points=[];" vertex="1" connectable="0" parent="JH9okOF0Hea_XWlJzWy8-521">
          <mxGeometry x="-0.1301" relative="1" as="geometry">
            <mxPoint as="offset" />
          </mxGeometry>
        </mxCell>
        <mxCell id="JH9okOF0Hea_XWlJzWy8-523" value="&lt;div&gt;Float_exp&lt;/div&gt;&lt;div&gt;_s&lt;/div&gt;" style="ellipse;whiteSpace=wrap;html=1;aspect=fixed;" vertex="1" parent="1">
          <mxGeometry x="1045" y="4220" width="60" height="60" as="geometry" />
        </mxCell>
        <mxCell id="JH9okOF0Hea_XWlJzWy8-524" value="&lt;div&gt;IFloat_Exp&lt;/div&gt;&lt;div&gt;_PM&lt;/div&gt;" style="ellipse;whiteSpace=wrap;html=1;aspect=fixed;" vertex="1" parent="1">
          <mxGeometry x="1105" y="4340" width="60" height="60" as="geometry" />
        </mxCell>
        <mxCell id="JH9okOF0Hea_XWlJzWy8-525" value="" style="endArrow=classic;html=1;rounded=0;exitX=1;exitY=0.5;exitDx=0;exitDy=0;" edge="1" parent="1">
          <mxGeometry width="50" height="50" relative="1" as="geometry">
            <mxPoint x="1105" y="4250" as="sourcePoint" />
            <mxPoint x="1135" y="4340" as="targetPoint" />
            <Array as="points">
              <mxPoint x="1135" y="4250" />
            </Array>
          </mxGeometry>
        </mxCell>
        <mxCell id="JH9okOF0Hea_XWlJzWy8-526" value="{+,-}" style="edgeLabel;html=1;align=center;verticalAlign=middle;resizable=0;points=[];" vertex="1" connectable="0" parent="JH9okOF0Hea_XWlJzWy8-525">
          <mxGeometry x="-0.1301" relative="1" as="geometry">
            <mxPoint as="offset" />
          </mxGeometry>
        </mxCell>
        <mxCell id="JH9okOF0Hea_XWlJzWy8-527" value="" style="endArrow=classic;html=1;rounded=0;exitX=0;exitY=0.5;exitDx=0;exitDy=0;entryX=1;entryY=0.5;entryDx=0;entryDy=0;" edge="1" parent="1" source="JH9okOF0Hea_XWlJzWy8-524" target="JH9okOF0Hea_XWlJzWy8-517">
          <mxGeometry width="50" height="50" relative="1" as="geometry">
            <mxPoint x="1064.88" y="4330" as="sourcePoint" />
            <mxPoint x="1064.98" y="4380" as="targetPoint" />
          </mxGeometry>
        </mxCell>
        <mxCell id="JH9okOF0Hea_XWlJzWy8-528" value="{0-9}" style="edgeLabel;html=1;align=center;verticalAlign=middle;resizable=0;points=[];" vertex="1" connectable="0" parent="JH9okOF0Hea_XWlJzWy8-527">
          <mxGeometry x="-0.1301" relative="1" as="geometry">
            <mxPoint as="offset" />
          </mxGeometry>
        </mxCell>
        <mxCell id="JH9okOF0Hea_XWlJzWy8-529" value="" style="endArrow=classic;html=1;rounded=0;exitX=0.5;exitY=1;exitDx=0;exitDy=0;entryX=1;entryY=0;entryDx=0;entryDy=0;" edge="1" parent="1" source="JH9okOF0Hea_XWlJzWy8-523" target="JH9okOF0Hea_XWlJzWy8-517">
          <mxGeometry width="50" height="50" relative="1" as="geometry">
            <mxPoint x="1095" y="4340" as="sourcePoint" />
            <mxPoint x="1035" y="4340" as="targetPoint" />
            <Array as="points">
              <mxPoint x="1075" y="4342" />
            </Array>
          </mxGeometry>
        </mxCell>
        <mxCell id="JH9okOF0Hea_XWlJzWy8-530" value="{0-9}" style="edgeLabel;html=1;align=center;verticalAlign=middle;resizable=0;points=[];" vertex="1" connectable="0" parent="JH9okOF0Hea_XWlJzWy8-529">
          <mxGeometry x="-0.1301" relative="1" as="geometry">
            <mxPoint y="-5" as="offset" />
          </mxGeometry>
        </mxCell>
        <mxCell id="JH9okOF0Hea_XWlJzWy8-531" value="" style="group" vertex="1" connectable="0" parent="1">
          <mxGeometry x="755" y="4330" width="80" height="80" as="geometry" />
        </mxCell>
        <mxCell id="JH9okOF0Hea_XWlJzWy8-532" value="" style="ellipse;whiteSpace=wrap;html=1;aspect=fixed;" vertex="1" parent="JH9okOF0Hea_XWlJzWy8-531">
          <mxGeometry width="80" height="80" as="geometry" />
        </mxCell>
        <mxCell id="JH9okOF0Hea_XWlJzWy8-533" value="BaseFloat" style="ellipse;whiteSpace=wrap;html=1;aspect=fixed;" vertex="1" parent="JH9okOF0Hea_XWlJzWy8-531">
          <mxGeometry x="10" y="10" width="60" height="60" as="geometry" />
        </mxCell>
        <mxCell id="JH9okOF0Hea_XWlJzWy8-534" value="" style="curved=1;endArrow=classic;html=1;rounded=0;exitX=0.047;exitY=0.295;exitDx=0;exitDy=0;entryX=0;entryY=1;entryDx=0;entryDy=0;exitPerimeter=0;" edge="1" parent="JH9okOF0Hea_XWlJzWy8-531" source="JH9okOF0Hea_XWlJzWy8-532" target="JH9okOF0Hea_XWlJzWy8-532">
          <mxGeometry width="50" height="50" relative="1" as="geometry">
            <mxPoint x="-68.2842712474619" y="50.004271247461475" as="sourcePoint" />
            <mxPoint x="-11.71572875253787" y="50.00427124746193" as="targetPoint" />
            <Array as="points">
              <mxPoint x="-40" />
              <mxPoint x="-40" y="100" />
            </Array>
          </mxGeometry>
        </mxCell>
        <mxCell id="JH9okOF0Hea_XWlJzWy8-535" value="&lt;div&gt;{0-9}&lt;/div&gt;" style="edgeLabel;html=1;align=center;verticalAlign=middle;resizable=0;points=[];" vertex="1" connectable="0" parent="JH9okOF0Hea_XWlJzWy8-534">
          <mxGeometry x="-0.0079" y="1" relative="1" as="geometry">
            <mxPoint x="-1" y="-9" as="offset" />
          </mxGeometry>
        </mxCell>
        <mxCell id="JH9okOF0Hea_XWlJzWy8-536" value="" style="endArrow=classic;html=1;rounded=0;exitX=0;exitY=1;exitDx=0;exitDy=0;entryX=1;entryY=0;entryDx=0;entryDy=0;" edge="1" parent="1" source="JH9okOF0Hea_XWlJzWy8-515" target="JH9okOF0Hea_XWlJzWy8-532">
          <mxGeometry width="50" height="50" relative="1" as="geometry">
            <mxPoint x="895" y="4300" as="sourcePoint" />
            <mxPoint x="945" y="4250" as="targetPoint" />
          </mxGeometry>
        </mxCell>
        <mxCell id="JH9okOF0Hea_XWlJzWy8-537" value="{0-9}" style="edgeLabel;html=1;align=center;verticalAlign=middle;resizable=0;points=[];" vertex="1" connectable="0" parent="JH9okOF0Hea_XWlJzWy8-536">
          <mxGeometry x="-0.0688" y="1" relative="1" as="geometry">
            <mxPoint as="offset" />
          </mxGeometry>
        </mxCell>
        <mxCell id="JH9okOF0Hea_XWlJzWy8-538" value="" style="endArrow=classic;html=1;rounded=0;exitX=1;exitY=0.5;exitDx=0;exitDy=0;entryX=0;entryY=0.5;entryDx=0;entryDy=0;" edge="1" parent="1" source="JH9okOF0Hea_XWlJzWy8-532" target="JH9okOF0Hea_XWlJzWy8-523">
          <mxGeometry width="50" height="50" relative="1" as="geometry">
            <mxPoint x="865" y="4330" as="sourcePoint" />
            <mxPoint x="795" y="4480" as="targetPoint" />
          </mxGeometry>
        </mxCell>
        <mxCell id="JH9okOF0Hea_XWlJzWy8-539" value="{e,E}" style="edgeLabel;html=1;align=center;verticalAlign=middle;resizable=0;points=[];" vertex="1" connectable="0" parent="JH9okOF0Hea_XWlJzWy8-538">
          <mxGeometry x="0.1035" relative="1" as="geometry">
            <mxPoint as="offset" />
          </mxGeometry>
        </mxCell>
        <mxCell id="JH9okOF0Hea_XWlJzWy8-542" value="" style="endArrow=classic;html=1;rounded=0;entryX=0;entryY=0;entryDx=0;entryDy=0;exitX=0.938;exitY=0.792;exitDx=0;exitDy=0;exitPerimeter=0;" edge="1" parent="1" source="JH9okOF0Hea_XWlJzWy8-389" target="JH9okOF0Hea_XWlJzWy8-544">
          <mxGeometry width="50" height="50" relative="1" as="geometry">
            <mxPoint x="1035" y="3870" as="sourcePoint" />
            <mxPoint x="1225" y="4060" as="targetPoint" />
          </mxGeometry>
        </mxCell>
        <mxCell id="JH9okOF0Hea_XWlJzWy8-543" value="&quot;" style="edgeLabel;html=1;align=center;verticalAlign=middle;resizable=0;points=[];" vertex="1" connectable="0" parent="JH9okOF0Hea_XWlJzWy8-542">
          <mxGeometry x="-0.1301" relative="1" as="geometry">
            <mxPoint as="offset" />
          </mxGeometry>
        </mxCell>
        <mxCell id="JH9okOF0Hea_XWlJzWy8-544" value="STR_S" style="ellipse;whiteSpace=wrap;html=1;aspect=fixed;" vertex="1" parent="1">
          <mxGeometry x="1215" y="4004" width="60" height="60" as="geometry" />
        </mxCell>
        <mxCell id="JH9okOF0Hea_XWlJzWy8-545" value="" style="endArrow=classic;html=1;rounded=0;exitX=0.5;exitY=1;exitDx=0;exitDy=0;entryX=0.5;entryY=0;entryDx=0;entryDy=0;" edge="1" parent="1" source="JH9okOF0Hea_XWlJzWy8-544" target="JH9okOF0Hea_XWlJzWy8-547">
          <mxGeometry width="50" height="50" relative="1" as="geometry">
            <mxPoint x="1245" y="4076" as="sourcePoint" />
            <mxPoint x="1245" y="4140" as="targetPoint" />
          </mxGeometry>
        </mxCell>
        <mxCell id="JH9okOF0Hea_XWlJzWy8-546" value="&quot;" style="edgeLabel;html=1;align=center;verticalAlign=middle;resizable=0;points=[];" vertex="1" connectable="0" parent="JH9okOF0Hea_XWlJzWy8-545">
          <mxGeometry x="-0.1301" relative="1" as="geometry">
            <mxPoint as="offset" />
          </mxGeometry>
        </mxCell>
        <mxCell id="JH9okOF0Hea_XWlJzWy8-547" value="" style="ellipse;whiteSpace=wrap;html=1;aspect=fixed;" vertex="1" parent="1">
          <mxGeometry x="1205" y="4210" width="80" height="80" as="geometry" />
        </mxCell>
        <mxCell id="JH9okOF0Hea_XWlJzWy8-548" value="STR_E" style="ellipse;whiteSpace=wrap;html=1;aspect=fixed;" vertex="1" parent="1">
          <mxGeometry x="1215" y="4220" width="60" height="60" as="geometry" />
        </mxCell>
        <mxCell id="JH9okOF0Hea_XWlJzWy8-549" value="" style="curved=1;endArrow=classic;html=1;rounded=0;exitX=0.017;exitY=0.333;exitDx=0;exitDy=0;exitPerimeter=0;entryX=0.306;entryY=0.972;entryDx=0;entryDy=0;entryPerimeter=0;" edge="1" parent="1" source="JH9okOF0Hea_XWlJzWy8-544" target="JH9okOF0Hea_XWlJzWy8-544">
          <mxGeometry width="50" height="50" relative="1" as="geometry">
            <mxPoint x="1345" y="4200" as="sourcePoint" />
            <mxPoint x="1275" y="4080" as="targetPoint" />
            <Array as="points">
              <mxPoint x="1125" y="4010" />
              <mxPoint x="1165" y="4140" />
            </Array>
          </mxGeometry>
        </mxCell>
        <mxCell id="JH9okOF0Hea_XWlJzWy8-550" value="ASCII&amp;lt;32,127&amp;gt;-{&quot;,\}" style="edgeLabel;html=1;align=center;verticalAlign=middle;resizable=0;points=[];" vertex="1" connectable="0" parent="JH9okOF0Hea_XWlJzWy8-549">
          <mxGeometry x="-0.0079" y="1" relative="1" as="geometry">
            <mxPoint x="-2" y="-5" as="offset" />
          </mxGeometry>
        </mxCell>
        <mxCell id="JH9okOF0Hea_XWlJzWy8-551" value="&lt;div&gt;STR_&lt;/div&gt;&lt;div&gt;Slash&lt;/div&gt;" style="ellipse;whiteSpace=wrap;html=1;aspect=fixed;" vertex="1" parent="1">
          <mxGeometry x="1435" y="3990" width="60" height="60" as="geometry" />
        </mxCell>
        <mxCell id="JH9okOF0Hea_XWlJzWy8-552" value="&lt;div&gt;STR_&lt;/div&gt;&lt;div&gt;Shexa1&lt;/div&gt;" style="ellipse;whiteSpace=wrap;html=1;aspect=fixed;" vertex="1" parent="1">
          <mxGeometry x="1435" y="4120" width="60" height="60" as="geometry" />
        </mxCell>
        <mxCell id="JH9okOF0Hea_XWlJzWy8-553" value="&lt;div&gt;STR_&lt;/div&gt;&lt;div&gt;Shexa2&lt;/div&gt;" style="ellipse;whiteSpace=wrap;html=1;aspect=fixed;" vertex="1" parent="1">
          <mxGeometry x="1435" y="4230" width="60" height="60" as="geometry" />
        </mxCell>
        <mxCell id="JH9okOF0Hea_XWlJzWy8-554" value="" style="endArrow=classic;html=1;rounded=0;exitX=0.5;exitY=1;exitDx=0;exitDy=0;entryX=0.5;entryY=0;entryDx=0;entryDy=0;" edge="1" parent="1" source="JH9okOF0Hea_XWlJzWy8-552" target="JH9okOF0Hea_XWlJzWy8-553">
          <mxGeometry width="50" height="50" relative="1" as="geometry">
            <mxPoint x="1466.06" y="4220" as="sourcePoint" />
            <mxPoint x="1516.06" y="4170" as="targetPoint" />
          </mxGeometry>
        </mxCell>
        <mxCell id="JH9okOF0Hea_XWlJzWy8-555" value="{0-9,a-f,A-F}" style="edgeLabel;html=1;align=center;verticalAlign=middle;resizable=0;points=[];" vertex="1" connectable="0" parent="JH9okOF0Hea_XWlJzWy8-554">
          <mxGeometry x="-0.1461" y="-1" relative="1" as="geometry">
            <mxPoint as="offset" />
          </mxGeometry>
        </mxCell>
        <mxCell id="JH9okOF0Hea_XWlJzWy8-556" value="" style="endArrow=classic;html=1;rounded=0;exitX=0;exitY=0;exitDx=0;exitDy=0;entryX=1;entryY=1;entryDx=0;entryDy=0;" edge="1" parent="1" source="JH9okOF0Hea_XWlJzWy8-553" target="JH9okOF0Hea_XWlJzWy8-544">
          <mxGeometry width="50" height="50" relative="1" as="geometry">
            <mxPoint x="1513.66" y="4220" as="sourcePoint" />
            <mxPoint x="1460.94" y="4260" as="targetPoint" />
          </mxGeometry>
        </mxCell>
        <mxCell id="JH9okOF0Hea_XWlJzWy8-557" value="{0-9,a-f,A-F}" style="edgeLabel;html=1;align=center;verticalAlign=middle;resizable=0;points=[];" vertex="1" connectable="0" parent="JH9okOF0Hea_XWlJzWy8-556">
          <mxGeometry x="-0.0102" y="-1" relative="1" as="geometry">
            <mxPoint as="offset" />
          </mxGeometry>
        </mxCell>
        <mxCell id="JH9okOF0Hea_XWlJzWy8-558" value="" style="curved=1;endArrow=classic;html=1;rounded=0;exitX=0.646;exitY=0.985;exitDx=0;exitDy=0;exitPerimeter=0;entryX=0.797;entryY=0.918;entryDx=0;entryDy=0;entryPerimeter=0;" edge="1" parent="1" source="JH9okOF0Hea_XWlJzWy8-389" target="JH9okOF0Hea_XWlJzWy8-389">
          <mxGeometry width="50" height="50" relative="1" as="geometry">
            <mxPoint x="1070" y="3910" as="sourcePoint" />
            <mxPoint x="1055" y="3890" as="targetPoint" />
            <Array as="points">
              <mxPoint x="1005" y="3930" />
              <mxPoint x="1075" y="3910" />
            </Array>
          </mxGeometry>
        </mxCell>
        <mxCell id="JH9okOF0Hea_XWlJzWy8-559" value="{EOL,EOF}" style="edgeLabel;html=1;align=center;verticalAlign=middle;resizable=0;points=[];rotation=-30;" vertex="1" connectable="0" parent="JH9okOF0Hea_XWlJzWy8-558">
          <mxGeometry x="0.0075" y="-1" relative="1" as="geometry">
            <mxPoint as="offset" />
          </mxGeometry>
        </mxCell>
        <mxCell id="JH9okOF0Hea_XWlJzWy8-560" value="" style="endArrow=classic;html=1;rounded=0;exitX=0.007;exitY=0.617;exitDx=0;exitDy=0;entryX=1;entryY=0;entryDx=0;entryDy=0;exitPerimeter=0;" edge="1" parent="1" source="JH9okOF0Hea_XWlJzWy8-551">
          <mxGeometry width="50" height="50" relative="1" as="geometry">
            <mxPoint x="1447.73" y="3980" as="sourcePoint" />
            <mxPoint x="1275.0032034355963" y="4028.7867965644036" as="targetPoint" />
          </mxGeometry>
        </mxCell>
        <mxCell id="JH9okOF0Hea_XWlJzWy8-561" value="{&#39;,&quot;,n,r,t,\}" style="edgeLabel;html=1;align=center;verticalAlign=middle;resizable=0;points=[];" vertex="1" connectable="0" parent="JH9okOF0Hea_XWlJzWy8-560">
          <mxGeometry x="-0.1301" relative="1" as="geometry">
            <mxPoint as="offset" />
          </mxGeometry>
        </mxCell>
        <mxCell id="JH9okOF0Hea_XWlJzWy8-562" value="" style="curved=1;endArrow=classic;html=1;rounded=0;entryX=0.352;entryY=0.037;entryDx=0;entryDy=0;exitX=0.634;exitY=0.049;exitDx=0;exitDy=0;exitPerimeter=0;entryPerimeter=0;" edge="1" parent="1" source="JH9okOF0Hea_XWlJzWy8-544" target="JH9okOF0Hea_XWlJzWy8-551">
          <mxGeometry width="50" height="50" relative="1" as="geometry">
            <mxPoint x="1296" y="3951" as="sourcePoint" />
            <mxPoint x="1333" y="3944" as="targetPoint" />
            <Array as="points">
              <mxPoint x="1275" y="3960" />
              <mxPoint x="1435" y="3950" />
            </Array>
          </mxGeometry>
        </mxCell>
        <mxCell id="JH9okOF0Hea_XWlJzWy8-563" value="/" style="edgeLabel;html=1;align=center;verticalAlign=middle;resizable=0;points=[];" vertex="1" connectable="0" parent="JH9okOF0Hea_XWlJzWy8-562">
          <mxGeometry x="-0.0079" y="1" relative="1" as="geometry">
            <mxPoint x="5" y="1" as="offset" />
          </mxGeometry>
        </mxCell>
        <mxCell id="JH9okOF0Hea_XWlJzWy8-564" value="x" style="endArrow=classic;html=1;rounded=0;exitX=0.5;exitY=1;exitDx=0;exitDy=0;entryX=0.5;entryY=0;entryDx=0;entryDy=0;" edge="1" parent="1" source="JH9okOF0Hea_XWlJzWy8-551" target="JH9okOF0Hea_XWlJzWy8-552">
          <mxGeometry width="50" height="50" relative="1" as="geometry">
            <mxPoint x="1485.12" y="4110" as="sourcePoint" />
            <mxPoint x="1535.12" y="4060" as="targetPoint" />
          </mxGeometry>
        </mxCell>
        <mxCell id="JH9okOF0Hea_XWlJzWy8-565" value="" style="group" vertex="1" connectable="0" parent="1">
          <mxGeometry x="1295" y="3640" width="80" height="80" as="geometry" />
        </mxCell>
        <mxCell id="JH9okOF0Hea_XWlJzWy8-566" value="" style="ellipse;whiteSpace=wrap;html=1;aspect=fixed;" vertex="1" parent="JH9okOF0Hea_XWlJzWy8-565">
          <mxGeometry width="80" height="80" as="geometry" />
        </mxCell>
        <mxCell id="JH9okOF0Hea_XWlJzWy8-567" value="Que" style="ellipse;whiteSpace=wrap;html=1;aspect=fixed;" vertex="1" parent="JH9okOF0Hea_XWlJzWy8-565">
          <mxGeometry x="10" y="10" width="60" height="60" as="geometry" />
        </mxCell>
        <mxCell id="JH9okOF0Hea_XWlJzWy8-568" value="" style="endArrow=classic;html=1;rounded=0;entryX=0.5;entryY=1;entryDx=0;entryDy=0;exitX=0.946;exitY=0.335;exitDx=0;exitDy=0;exitPerimeter=0;" edge="1" parent="1" source="JH9okOF0Hea_XWlJzWy8-389" target="JH9okOF0Hea_XWlJzWy8-566">
          <mxGeometry width="50" height="50" relative="1" as="geometry">
            <mxPoint x="1051" y="3832" as="sourcePoint" />
            <mxPoint x="1255" y="3730" as="targetPoint" />
          </mxGeometry>
        </mxCell>
        <mxCell id="JH9okOF0Hea_XWlJzWy8-569" value="?" style="edgeLabel;html=1;align=center;verticalAlign=middle;resizable=0;points=[];" vertex="1" connectable="0" parent="JH9okOF0Hea_XWlJzWy8-568">
          <mxGeometry x="-0.1301" relative="1" as="geometry">
            <mxPoint as="offset" />
          </mxGeometry>
        </mxCell>
      </root>
    </mxGraphModel>
  </diagram>
</mxfile>
